<?xml version="1.0" standalone="no"?>
<!DOCTYPE svg PUBLIC "-//W3C//DTD SVG 1.1//EN" "http://www.w3.org/Graphics/SVG/1.1/DTD/svg11.dtd" >
<!--
2013-9-30: Created.
-->
<svg>
<metadata>
Created by iconfont
</metadata>
<defs>

<font id="iconfont" horiz-adv-x="1024" >
  <font-face
    font-family="iconfont"
    font-weight="500"
    font-stretch="normal"
    units-per-em="1024"
    ascent="896"
    descent="-128"
  />
    <missing-glyph />
    
    <glyph glyph-name="daishouhuo" unicode="&#58880;" d="M827.7235264 736.60893973L369.88596373 736.60893973c-43.75930133 0-79.20881173-35.33053333-79.20881173-78.86279786l0-130.4494368-169.24447573-97.46459414 0.2041152-0.34492266c-4.6182496-3.3586272-7.80441493-8.5455616-7.81533014-14.683216l0-264.83601067 0-0.0425696c0-11.4533888 8.309792-20.79794773 18.59088107-20.79794773 10.26908267 0 18.57887467 9.34455893 18.57887467 20.79794773l0 0.0425696L150.99121707 404.189968l167.40416213 96.41127147c8.0958528 2.86307413 13.96171733 10.33457387 13.96171733 19.37568853 0 0.0436608-0.009824 0.0654912-0.009824 0.0873216l0.009824 0 0 133.52645013c0 22.9067776 18.67711147 41.48892693 41.69304214 41.48892694l449.49502506 0c23.03885227 0 41.68212693-18.58105707 41.68212694-41.48892694l0-440.06641813c0-0.0425696 0-0.0851392 0-0.0851392 0-11.45557227 9.34455893-20.75537813 20.86344-20.75537813 11.5177888 0 20.84051733 9.29980693 20.84051733 20.75537813 0 0 0 0.0425696 0 0.0851392L906.93124693 657.74723307C906.93124693 701.2794976 871.4730048 736.60893973 827.7235264 736.60893973zM261.1710048 344.55331947c-11.00258773-0.0414784-19.94764907-8.95597547-19.94764907-19.893072 0-10.93818773 8.94506027-19.85159467 19.96838827-19.85159467 0.0654912 0 0.1506304 0.0436608 0.2150304 0.0436608l104.92408747 0c42.2955648-0.2150304 39.88547413 39.69991467 39.88547413 39.69991467l0 82.65366933c0 10.95892693-8.93523733 19.8494112-19.93782507 19.8494112-11.02332693 0-19.9563808-8.89048427-19.9563808-19.8494112 0-0.0436608 0.00873173-0.0873216 0.00873174-0.1298912l0-82.52377813L261.1710048 344.55222827zM731.83073067 237.20713493000005c-52.85608427 0-96.1296576-39.69991467-102.5260032-90.63927786l-209.2773056 0.0851392c-6.4367328 50.8957024-49.70266453 90.55413973-102.5358272 90.55413973-57.2462048 0-103.83692693-46.37459947-103.83692694-103.38503467 0-56.96677333 46.59072213-103.34246507 103.83692694-103.34246506 49.55094187 0 90.9972992 34.7902272 101.2652896 81.07968853l211.86094933-0.0851392c10.31274347-46.24579947 51.7187136-80.99454933 101.21398827-80.99454933 57.2691264 0 103.83583467 46.37459947 103.83583466 103.34246506C835.66656533 190.83144427000002 789.09985707 237.20713493000005 731.83073067 237.20713493000005zM317.49159467 74.27059199999997c-32.9826592 0-59.82002453 26.74021867-59.82002454 59.55150933 0 32.85495147 26.83627307 59.55041707 59.82002454 59.55041707s59.83203093-26.69546667 59.83203093-59.55041707C377.32362667 101.01081066999996 350.47425493 74.27059199999997 317.49159467 74.27059199999997zM731.83073067 74.27059199999997c-32.98484267 0-59.81129173 26.74021867-59.81129174 59.55150933 0 32.85495147 26.82644907 59.55041707 59.81129174 59.55041707s59.82984853-26.69546667 59.82984853-59.55041707C791.6616704 101.01081066999996 764.81557333 74.27059199999997 731.83073067 74.27059199999997z"  horiz-adv-x="1024" />

    
    <glyph glyph-name="icon2" unicode="&#58929;" d="M836.15877447 240.62549341L512.44388481 564.34233776 188.73029807 240.62549341 227.57657989 201.77921160999995 512.44388481 486.64977415 797.31249267 201.78246858Z"  horiz-adv-x="1024" />

    
    <glyph glyph-name="daifahuo" unicode="&#59021;" d="M510.43338219-31.37053874000003c-54.44692499 0-108.871785 10.86847125-160.58552344 32.54113686-102.28297219 42.90019407-181.74973405 123.06632063-223.73950499 225.730155-86.66955844 211.95965156 15.2325525 454.89286219 227.14999217 541.56242063C565.19785157 855.13273219 808.13106311 753.25172719 894.82172656 541.3342875000001c25.84583625-63.21729844 35.80292532-132.28183312 28.79103938-199.73561906-0.93248813-8.96128406-8.94017812-15.48678-17.85925125-14.51208094-8.94017812 0.93248813-15.44456812 8.91907313-14.51208094 17.85925125 6.46121906 62.15817657-2.73318656 125.79854812-26.5452028 184.05888844-38.7059175 94.61393156-111.92251686 168.50879062-206.19779814 208.04070844-94.29638719 39.55302281-198.31674094 39.97705594-292.90956749 1.29224343C170.25954031 658.46894999 76.34497437 434.55964031 156.23480844 239.23031344000003c38.7059175-94.61393156 111.92251686-168.50879062 206.19779812-208.04070844 94.27528125-39.55302281 198.29563594-39.97705594 292.9095675-1.29224344 8.30508937 3.36827625 17.83814531-0.59287781 21.2275275-8.89796718 3.38938219-8.32619438-0.59287781-17.81704032-8.89796718-21.22752751C616.91159001-20.990376569999967 563.65138063-31.37053874000003 510.43338219-31.37053874000003zM804.9536975 94.19488780999995c-0.21201657 0-0.4240322 0-0.63604875 0.02110594-8.98238999 0.33865031-15.995235 7.88105625-15.63451969 16.86344625l4.10985375 107.57954062c0.31754437 8.98238999 7.39370719 16.77902343 16.86344625 15.63451969 8.98238999-0.33865031 15.995235-7.88105625 15.63451969-16.86344625l-4.10985376-107.57954062C820.86355063 101.08014001000004 813.63964813 94.19488780999995 804.9536975 94.19488780999995zM912.55434406 90.08503406c-0.21201657 0-0.4240322 0-0.63508968 0.02110594l-107.60064657 4.10985375c-8.98238999 0.33865031-15.995235 7.88105625-15.63451968 16.86344625 0.31754437 9.00349594 7.94437406 16.69364156 16.86344624 15.63451969l107.60064657-4.10985375c8.98238999-0.33865031 15.995235-7.88105625 15.63451968-16.86344625C928.46419719 96.97028624999996 921.24029469 90.08503406 912.55434406 90.08503406zM701.69602625 392.14679625L351.69172906 392.14679625c-29.63814563 0-53.76866531 24.13051969-53.76866529 53.78977031l0 56.62848562c0 29.63814563 24.13051969 53.76866531 53.76866529 53.76866532l350.00429719 0c29.63814563 0 53.76866531-24.13051969 53.76866531-53.76866532l0-56.62848562C755.46469063 416.27731594 731.33417187 392.14679625 701.69602625 392.14679625zM351.69172906 523.7925806200001c-11.71557657 0-21.2275275-9.51195094-21.2275275-21.22752749l0-56.62848563c0-11.71557657 9.51195094-21.24863344 21.2275275-21.24863344l350.00429719 0c11.71557657 0 21.2275275 9.53305687 21.2275275 21.24863344l0 56.62848563c0 11.71557657-9.51195094 21.2275275-21.2275275 21.2275275L351.69172906 523.7925806200001zM650.19430439 167.36927530000003L403.19345094 167.36927530000003c-35.82403125 0-64.95468094 29.1296897-64.95468095 64.95468095L338.23876999 359.73325313c0 35.82499031 29.1296897 64.95468094 64.95468095 64.95468093l247.00085345 0c35.82499031 0 64.95468094-29.1296897 64.95468092-64.95468093l0-127.40929688C715.14802532 196.49896593999995 686.01833564 167.36927530000003 650.19430439 167.36927530000003zM403.19345094 392.14679625c-17.88035719 0-32.41354406-14.53318687-32.41354408-32.41354406l0-127.40929687c0-17.88035719 14.53318687-32.41354406 32.41354408-32.41354407l247.00085343 0c17.88035719 0 32.41354406 14.53318687 32.41354407 32.41354407L682.6078475 359.73325313c0 17.88035719-14.53318687 32.41354406-32.41354407 32.41354406L403.19345094 392.14679625z"  horiz-adv-x="1024" />

    
    <glyph glyph-name="758bianjiqi_fengexian" unicode="&#58962;" d="M1020.1360667 360.986l-1022.86399998 0 0 85.24L1020.1360667 446.226l0-85.24z"  horiz-adv-x="1024" />

    
    <glyph glyph-name="you" unicode="&#58903;" d="M773.87451813 384L250.12548187 78.48022613V689.5203706z"  horiz-adv-x="1024" />

    
    <glyph glyph-name="fuliquan" unicode="&#58958;" d="M896 581.632c-23.04-12.288-47.104-23.552-71.68-33.792V819.2h-204.8c0-3.072 0-6.144-0.512-9.216 0.512 3.072 0.512 6.144 0.512 9.216h-51.2c0-28.16-23.04-51.2-51.2-51.2s-51.2 23.04-51.2 51.2H414.72c0-3.072 0-6.144 0.512-9.216-0.512 3.072-0.512 6.144-0.512 9.216H209.92v-274.944c-28.16 11.264-55.296 23.552-81.92 37.888H76.8V-51.2h870.4V581.632h-51.2z m-276.992 225.792c-0.512-2.56-0.512-5.12-1.024-7.68 0 2.56 0.512 5.12 1.024 7.68z m-2.048-10.752c-0.512-2.048-1.024-3.584-1.536-5.632 0.512 1.536 1.024 3.584 1.536 5.632z m-2.56-10.24c-0.512-1.024-1.024-2.048-1.024-3.072 0 1.024 0.512 2.048 1.024 3.072z m-5.12-11.776c0-0.512-0.512-1.024-0.512-1.536 0 0.512 0.512 1.024 0.512 1.536z m-192.512 25.088c-0.512 2.56-1.024 5.12-1.024 7.68 0-2.56 0.512-5.12 1.024-7.68z m8.704-26.624c0 0.512-0.512 1.024-0.512 1.536 0-0.512 0.512-1.024 0.512-1.536z m-4.096 10.24c-0.512 1.024-1.024 2.048-1.024 3.072 0-1.024 0.512-2.048 1.024-3.072z m-2.56 7.68c-0.512 2.048-1.024 3.584-1.536 5.632 0.512-2.048 1.024-4.096 1.536-5.632zM261.12 768h167.424c17.92-30.72 50.688-51.2 88.576-51.2s70.656 20.48 88.576 51.2H773.12v-239.104c-49.152-16.384-99.84-28.672-152.576-35.328V665.6h-51.2v-177.152c-18.944-1.536-37.888-2.048-57.344-2.048s-38.4 0.512-57.344 2.048V665.6h-51.2v-172.032C354.304 500.224 307.2 510.976 261.12 525.312V768z m634.88-768H128V524.288C243.712 467.456 374.272 435.2 512 435.2s268.288 32.256 384 89.088V0zM439.808 349.696l-36.352-36.352L460.8 256H409.6v-51.2h76.8v-25.6H409.6v-51.2h76.8v-76.8h51.2v76.8h76.8v51.2h-76.8v25.6h76.8v51.2h-51.2l57.344 57.344-36.352 36.352-72.192-72.704z"  horiz-adv-x="1024" />

    
    <glyph glyph-name="tijian" unicode="&#58982;" d="M153.6 742.4a51.2 51.2 0 0 1-51.2-51.2v-563.2a51.2 51.2 0 0 1 51.2-51.2h716.8a51.2 51.2 0 0 1 51.2 51.2V691.2a51.2 51.2 0 0 1-51.2 51.2H153.6z m0 51.2h716.8a102.4 102.4 0 0 0 102.4-102.4v-563.2a102.4 102.4 0 0 0-102.4-102.4H153.6a102.4 102.4 0 0 0-102.4 102.4V691.2a102.4 102.4 0 0 0 102.4 102.4z m128-819.2h460.8a25.6 25.6 0 1 0 0-51.2h-460.8a25.6 25.6 0 1 0 0 51.2zM647.4752 314.6752A25.6 25.6 0 0 1 665.6 307.20000000000005h153.6a25.6 25.6 0 1 1 0 51.2h-143.0016L478.9248 555.7248a25.6 25.6 0 0 1-41.0112-6.656L342.528 358.4H204.8a25.6 25.6 0 1 1 0-51.2h153.6a25.6 25.6 0 0 1 22.8864 14.1312l86.528 173.056 179.712-179.712z"  horiz-adv-x="1024" />

    
    <glyph glyph-name="kefu" unicode="&#59070;" d="M512 332.8a153.6 153.6 0 1 1 0 307.2 153.6 153.6 0 0 1 0-307.2z m0-51.2a204.8 204.8 0 1 0 0 409.6 204.8 204.8 0 0 0 0-409.6zM484.9664 230.4a319.2832 319.2832 0 0 1-285.5936-176.4864l-28.2624-56.6272A51.2 51.2 0 0 1 216.8832-76.8h590.2336a51.2 51.2 0 0 1 45.7728 74.0864l-28.2624 56.6272A319.2832 319.2832 0 0 1 539.0336 230.4H484.9664z m0 51.2h54.0672A370.4832 370.4832 0 0 0 870.4 76.8l28.3136-56.6272A102.4 102.4 0 0 0 807.0656-128H216.9344a102.4 102.4 0 0 0-91.5968 148.1728L153.6 76.8a370.4832 370.4832 0 0 0 331.3664 204.8zM204.8 384v-79.9232l-68.2496 19.2a128 128 0 0 0 0 241.408l27.9552 9.8816a358.5536 358.5536 0 0 0 694.9888 0l27.9552-9.8816a128 128 0 0 0 0-241.408L819.2 304.0768V486.4A307.2 307.2 0 1 1 204.8 486.4v-102.4z m665.6 132.4032v-144.896a76.8 76.8 0 0 1 0 144.896z m-716.8 0a76.8 76.8 0 0 1 0-144.896v144.896z"  horiz-adv-x="1024" />

    
    <glyph glyph-name="sousuo" unicode="&#58890;" d="M924.73173828 37.73466797000003c-0.2390625 17.77060547-4.36201172 109.22255859-58.86210937 163.72792969-24.58652344 24.59267578-65.72285156 46.05117188-130.57294922 78.48984375-32.6953125 16.35644531-87.0890625 43.56123047-100.30078125 56.02675781 55.2515625 67.89726563 87.30087891 144.61259766 87.3008789 211.75751953 0 45.55458984 0 102.26425781-25.48916015 152.82861328-22.9921875 45.54492188-74.34404297 99.79628906-188.53417969 99.79628906-114.15761719 0-165.51914063-54.25048828-188.50341797-99.79541015-25.49619141-50.56435547-25.49619141-107.27490234-25.49619141-152.82861328 0-67.17480469 32.034375-143.86025391 87.2859375-211.75751954-13.20292969-12.49541016-67.60371094-39.69931641-100.27792968-56.02675781-64.86591797-32.43867187-105.99609375-53.89628906-130.58173828-78.48984375-54.48339844-54.50625-58.61337891-145.95732422-58.88496094-163.72792968-0.27861328-18.58359375-1.72265625-37.24013672 11.34492187-50.48964844 13.01572266-13.23896484 24.56367188-20.01972656 43.16923828-20.01972657h727.6359375c18.59677734 0 27.65654297 7.35908203 40.70126954 20.59892579 13.07460937 13.24863281 10.36582031 31.32685547 10.06523437 49.90957031z m-34.23076172-32.64433594c-3.30996094-3.33193359-7.71855469-5.18994141-12.38291015-5.1899414l-737.25117188 0.59501953a17.40585937 17.40585937 0 0 0-12.36181641 5.1899414c-3.24931641 3.28095703-5.05458984 13.84453125-5.00273437 18.47109375 0.15029297 8.72666016 8.21601563 108.74794922 49.30048828 149.8631836 18.96679688 18.95800781 56.10058594 41.85175781 113.5265625 72.94482421 56.81601562 30.77138672 81.14589844 44.02617188 104.02382813 55.68046875l39.27919921 23.44306641-23.73574218 35.26083984c-48.08847656 59.05810547-74.24736328 124.92421875-74.24736328 179.56582032 0 42.12333984 0.78222656 102.96386719 20.71933593 142.44609375 23.84824219 47.23857422 85.50966797 84.59912109 155.90478516 84.59912109 70.40390625 0 131.89833984-27.03076172 155.74746094-74.23945312 19.90634766-39.51298828 26.76708984-105.49951172 26.76708984-147.62197266 0-54.61962891-27.92548828-120.07880859-75.98408203-179.13603516l-27.18896484-35.62294921 21.15527343-16.60429688c21.01992188-15.48984375 50.75068359-33.14619141 113.0897461-64.31660156 58.38134766-29.19111328 100.13466797-57.00234375 119.1234375-75.97089844 33.43271484-33.4546875 53.25029297-115.97958984 53.74511718-147.71865234 0.06064453-4.62744141-1.03710938-18.35771484-4.22753906-21.63867188z"  horiz-adv-x="1024" />

    
    <glyph glyph-name="Group-" unicode="&#59011;" d="M512 271.68l264.32 293.76a32 32 0 1 0 47.36-42.88l-288-320a32 32 0 0 0-47.36 0l-288 320a32 32 0 0 0 47.36 42.88z"  horiz-adv-x="1024" />

    
    <glyph glyph-name="tui" unicode="&#58924;" d="M775.131875 636.6440625c76.6378125-80.88609375 111.67874999-189.6159375 99.20390625-300.105-10.513125-93.13734375-61.441875-178.284375-132.8146875-237.6084375-151.28015625-125.7525-379.7296875-98.95921875-507.2878125 45.94640625C122.1621875 272.18203125 119.4790625 464.33765625 216.9659375 600.14765625c108.67921875 151.4025 321.856875 190.215 480.920625 97.77375 23.57015625-13.69828125 44.7946875 22.76859375 21.29203125 36.42890625C536.7809375 840.350625 305.08296875 789.8395312499999 180.53703125 621.4396875c-115.52203125-156.2034375-95.7065625-378.41765625 34.93546875-518.6278125 132.013125-141.67828125 353.77171875-165.94453125 515.986875-62.96484375 171.8971875 109.12640625 232.4784375 332.521875 149.47875 516.1640625-18.478125 40.87546875-45.208125 77.9878125-75.9796875 110.46375-18.7396875 19.7859375-48.5240625-10.0996875-29.8265625-29.83078125zM724.5321875 218.15671874999998c14.04-1.2571875 21.70546875-8.2940625 22.98796875-21.07265625-1.28671875-11.49609375-8.94796875-17.870625-22.98796875-19.15734375H498.47046875c-51.09328125 2.5734375-95.158125 17.90015625-132.18609375 45.9759375-2.5734375-1.28671875-6.40828125-3.830625-11.49609375-7.66125-19.15734375-15.32671875-36.399375-26.81859375-51.72609375-34.4840625-11.49609375-3.830625-19.81546875-0.62859375-24.90328125 9.58078125-5.11734375 14.06953125-2.5734375 23.64609375 7.66125 28.73812501 38.3146875 14.04 58.100625 33.8259375 59.38734375 59.38734374v103.4184375c0 14.04-5.7459375 21.07265625-17.24203125 21.07265625h-38.3146875c-10.23890625 0-15.98484375 6.37875001-17.24203124 19.15734375 1.2571875 12.7490625 7.003125 19.15734375 17.24203124 19.15734375h61.30265625c21.70546875 0 32.56875001-10.23890625 32.56875-30.6534375V292.875c3.830625-47.26265625 40.23-72.140625 109.198125-74.7140625h231.811875zM395.0225 515.06390625c7.66125001-11.49609375 6.37875001-21.07265625-3.830625-28.738125-10.23890625-6.40828125-19.81546875-3.830625-28.73812501 7.66125a954.6778125 954.6778125 0 0 1-57.47203124 67.0528125c-8.94796875 10.209375-9.58078125 19.7859375-1.9153125 28.738125 10.209375 6.37453125 20.41453125 5.0878125 30.6534375-3.830625 17.870625-16.60921875 38.3146875-40.23 61.30265625-70.8834375z m304.60640625-68.96390625c-1.28671875-19.15734375-12.15421875-29.39624999-32.56875-30.6534375H471.651875v-135.98296875c0-3.830625 1.9153125-5.11734375 5.7459375-3.830625 22.98796875 12.7490625 42.14953125 25.53609375 57.47625 38.3146875 12.7490625 8.9184375 22.98796875 8.2940625 30.6534375-1.9153125 7.66125001-10.23890625 5.7459375-20.4440625-5.7459375-30.6534375a407.84765625 407.84765625 0 0 0-82.37953125-47.89546875c-30.6534375-11.49609375-45.9759375-2.5734375-45.9759375 26.81859375V570.620625c-2.5734375 24.24515625 9.58078125 35.74124999 36.399375 34.4840625h195.40828124c25.53609375 2.54390625 37.6565625-8.32359375 36.39937501-32.56875v-126.4359375zM469.7365625 530.390625h191.57765625v21.07265625c1.2571875 12.7490625-3.20203125 18.49921875-13.41140625 17.24203125H485.06328125c-10.23890625 0-15.32671875-5.7459375-15.32671875-17.24203125V530.390625z m178.16625-78.5446875c8.9184375 0 13.41140625 4.4634375 13.41140625 13.41140625v28.738125H469.7365625v-42.1453125h178.16625z m-53.64140625-86.180625c8.9184375-6.4040625 15.32671875-11.491875 19.15734374-15.3225 17.870625 11.49609375 37.02796875 27.42609375 57.47203126 47.86171875 8.9184375 8.9184375 18.49921875 9.58078125 28.738125 1.9153125 8.9184375-10.23890625 8.9184375-20.43984375 0-30.63234375-11.49609375-11.4834375-30.020625-26.8059375-55.55671875-45.9675 22.98796875-20.4440625 42.1453125-40.23 57.47203125-59.38734375 8.9184375-12.77859375 8.9184375-22.98796875 0-30.6534375-10.23890625-6.40828125-20.4440625-4.48874999-30.6534375 5.7459375-43.43203125 49.81078125-93.2428125 92.5846875-149.428125 128.34703125-8.9521875 7.64859375-9.58078125 16.55859375-1.9153125 26.7975 7.66125001 10.209375 16.58390625 12.1246875 26.81859375 5.7459375 11.49609375-7.65703125 27.45140625-19.153125 47.89546875-34.4503125z"  horiz-adv-x="1024" />

    
    <glyph glyph-name="zuo" unicode="&#58940;" d="M243.1431111 408.23466668c-0.11377779-0.22755555-0.34133334-0.45511111-0.45511109-0.68266669-0.22755555-0.34133334-0.5688889-0.79644446-0.79644446-1.13777778-0.11377779-0.11377779-0.22755555-0.34133334-0.22755555-0.45511111-0.34133334-0.45511111-0.5688889-0.91022222-0.91022223-1.36533334l-0.11377776-0.11377776c-2.95822222-5.23377778-4.6648889-10.92266667-5.23377778-16.72533334v-0.22755553c0-0.5688889-0.11377779-1.02400001-0.11377778-1.5928889v-3.64088889c0-0.5688889 0.11377779-1.02400001 0.11377778-1.59288888v-0.22755556c0.45511111-5.80266668 2.27555555-11.49155556 5.23377778-16.72533335l0.11377776-0.11377778c0.22755555-0.45511111 0.5688889-0.91022222 0.91022223-1.4791111 0.11377779-0.11377779 0.22755555-0.34133334 0.22755555-0.45511112 0.22755555-0.34133334 0.45511111-0.79644446 0.79644446-1.13777777 0.11377779-0.22755555 0.34133334-0.45511111 0.45511112-0.68266667 0.22755555-0.34133334 0.45511111-0.5688889 0.68266664-0.91022222 0.22755555-0.22755555 0.45511111-0.5688889 0.68266669-0.79644445 0.11377779-0.11377779 0.22755555-0.22755555 0.34133332-0.45511112 0.11377779-0.11377779 0.22755555-0.22755555 0.22755555-0.34133332 0.22755555-0.34133334 0.5688889-0.5688889 0.79644446-0.91022222 0.22755555-0.22755555 0.45511111-0.45511111 0.56888888-0.68266667l0.79644446-0.79644445 0.68266666-0.68266667c0.22755555-0.22755555 0.5688889-0.45511111 0.79644443-0.79644444l0.68266667-0.68266666 0.34133334-0.34133335 471.49511109-395.60533332c17.29422222-14.44977779 43.23555555-12.17422224 57.68533335 5.00622223 14.44977779 17.29422222 12.17422224 43.23555555-5.00622222 57.68533334L339.968 384l434.176 364.31644445c17.29422222 14.44977779 19.56977778 40.50488889 5.00622222 57.68533334-14.44977779 17.29422222-40.50488889 19.56977778-57.68533335 5.00622222L249.856 415.40266667l-0.34133334-0.34133335-0.68266667-0.68266666c-0.22755555-0.22755555-0.5688889-0.45511111-0.79644445-0.79644444l-0.68266665-0.68266667-0.79644445-0.79644445c-0.22755555-0.22755555-0.45511111-0.45511111-0.56888889-0.68266666-0.22755555-0.34133334-0.5688889-0.5688889-0.79644445-0.91022223-0.11377779-0.11377779-0.22755555-0.22755555-0.22755557-0.34133332-0.11377779-0.11377779-0.22755555-0.22755555-0.34133331-0.45511111-0.22755555-0.22755555-0.45511111-0.5688889-0.68266667-0.79644446-0.34133334-0.11377779-0.5688889-0.45511111-0.79644445-0.68266667z"  horiz-adv-x="1024" />

    
    <glyph glyph-name="shouye" unicode="&#58905;" d="M775.61792246-62.66607832H609.23937237V185.47292256000003c0 5.87405214-6.03280987 10.7955545-13.33568585 10.79555537H432.22402549c-7.3028751 0-13.17692724-4.92150322-13.17692725-10.79555537v-248.29775947H252.66854815c-89.06332675 0-161.61580547 69.21855703-161.61580547 154.15417178V451.8691125c0 18.73346308 5.55653584 36.99065127 16.03457402 52.8664667l2.38137275 3.49267939L477.9463748 816.06032813c7.46163369 6.66784248 16.66960664 10.95431308 26.6713708 12.85941093l2.54013047 0.47627403h13.97071846l2.38137188-0.47627403c10.00176416-1.74634013 19.20973711-6.19156846 26.83012851-12.70065322L918.97653887 508.5457749l2.38137275-3.49267939c10.63679677-15.87581542 16.19333174-34.29176221 16.19333174-53.02522442v-360.53977763c-0.31751631-85.09437334-72.86999502-154.15417177-161.9333209-154.15417178z m-109.22561367 57.15293642h109.06685508c57.62921133 0 104.46286816 43.49973516 104.46286816 96.84247677V451.8691125c0 6.35032617-1.58758154 12.54189463-4.76274463 18.25718818l-361.01605253 301.64050107-361.33356797-301.64050107c-3.01640537-5.71529355-4.60398691-11.90686201-4.60398692-18.25718818v-360.53977763c0-53.50149932 46.83365683-96.84247676 104.46286817-96.84247677h109.22561279V185.47292256000003c0 37.46692529 31.59287315 67.9484918 70.32986455 67.94849179h163.83841963c38.89574912 0 70.48862227-30.48156651 70.48862227-67.94849179v-190.98606446z"  horiz-adv-x="1024" />

    
    <glyph glyph-name="daifukuan" unicode="&#58912;" d="M878.65625 240H578.75c-54 0.1875-98.0625 44.15625-98.15625 98.15625v91.21875c0.1875 54 44.15625 98.0625 98.15625 98.15625h300v-38.8125h-300c-32.625-0.09375-59.34375-26.8125-59.4375-59.4375v-91.125c0.09375-32.625 26.8125-59.34375 59.4375-59.4375h299.90625v-38.71875zM550.53125 383.8125c0-15.5625 12.65625-28.21875 28.21875-28.21875s28.21875 12.65625 28.21875 28.21875-12.65625 28.21875-28.21875 28.21875c-15.65625 0-28.21875-12.65625-28.21875-28.21875z m0 0M844.8125 26.34375H179.84375c-32.0625 0-58.125 26.0625-58.125 58.125V683.15625c0 32.0625 26.0625 58.125 58.125 58.125H844.8125c32.0625 0 58.125-26.0625 58.125-58.125v-598.6875c0-32.0625-26.0625-58.125-58.125-58.125zM179.84375 702.46875c-10.6875 0-19.40625-8.71875-19.40625-19.40625v-598.6875c0-10.6875 8.71875-19.40625 19.40625-19.40625H844.8125c10.6875 0 19.40625 8.71875 19.40625 19.40625V683.15625c0 10.6875-8.71875 19.40625-19.40625 19.40625H179.84375z"  horiz-adv-x="1024" />

    
    <glyph glyph-name="shinshopliwu" unicode="&#58893;" d="M766.9 369.79999999999995c12.1 0 21.9 9.8 21.9 21.9s-9.8 21.9-21.9 21.9H258c-12.1 0-21.9-9.8-21.9-21.9s9.8-21.9 21.9-21.9h508.9zM836 623.8h-78.4l8.1 8.1c17.4 17.4 26.9 40.5 26.9 65s-9.6 47.7-26.9 65c-17.4 17.4-40.5 26.9-65 26.9-24.6 0-47.7-9.6-65-26.9L512 638.2 388.3 761.9c-35.9 35.9-94.2 35.9-130 0-17.4-17.4-26.9-40.5-26.9-65s9.6-47.7 26.9-65l8.1-8.1H188c-50.7 0-92-41.3-92-92v-140.1c0-12.1 9.8-21.9 21.9-21.9 12.1 0 21.9 9.8 21.9 21.9V531.8c0 26.6 21.6 48.2 48.2 48.2h648c26.6 0 48.2-21.6 48.2-48.2v-140.1c0-12.1 9.8-21.9 21.9-21.9s21.9 9.8 21.9 21.9V531.8c0 50.7-41.3 92-92 92z m-507.9 0c-0.4 0.5-0.9 1-1.3 1.5l-37.6 37.6c-9.1 9.1-14.1 21.2-14.1 34.1 0 12.9 5 25 14.1 34.1 18.8 18.8 49.3 18.8 68.1 0L464.4 624H328.1z m406.6 39l-37.5-37.5c-0.5-0.5-0.9-1-1.3-1.5H559.5l107.1 107.1c9.1 9.1 21.2 14.1 34.1 14.1 12.9 0 25-5 34.1-14.1 9.1-9.1 14.1-21.2 14.1-34.1 0-12.8-5.1-24.9-14.2-34zM844.8 439c-12.1 0-21.9-9.8-21.9-21.9v-345.9c0-26.6-21.6-48.2-48.2-48.2H249.3c-26.6 0-48.2 21.6-48.2 48.2V417.1c0 12.1-9.8 21.9-21.9 21.9s-21.9-9.8-21.9-21.9v-345.9c0-50.7 41.3-92 92-92h525.5c50.7 0 92 41.3 92 92V417.1c-0.1 12.1-9.9 21.9-22 21.9z"  horiz-adv-x="1024" />

    
    <glyph glyph-name="gouwuche" unicode="&#59336;" d="M337.92 0m-46.08 0a46.08 46.08 0 1 1 92.16 0 46.08 46.08 0 1 1-92.16 0ZM686.08 0m-46.08 0a46.08 46.08 0 1 1 92.16 0 46.08 46.08 0 1 1-92.16 0ZM924.672 546.304c-16.384 22.016-41.472 34.816-69.12 34.816H161.792l-29.184 173.056c-2.56 13.824-15.36 23.552-29.696 20.992-13.824-2.56-23.552-15.36-20.992-29.696l98.816-589.824c7.168-41.472 42.496-71.68 84.992-71.68h492.544c37.888 0 71.68 25.088 82.432 61.44l97.28 324.608c8.192 26.624 3.072 54.272-13.312 76.288z m-35.328-60.928l-97.28-324.608c-4.608-14.848-17.92-24.576-33.28-24.576H266.24c-16.896 0-31.232 12.288-34.304 29.184l-61.44 365.056h685.568c11.264 0 21.504-5.12 27.648-13.824 6.656-9.728 8.704-20.992 5.632-31.232z"  horiz-adv-x="1024" />

    
    <glyph glyph-name="fenxiang" unicode="&#58911;" d="M839.48046875 458.44335938c-19.77539063 10.10742188-39.11132813 10.81054688-41.22070313 10.81054687-11.68945313 0.26367188-21.26953125-9.05273438-21.53320312-20.65429688-0.26367188-11.68945313 9.05273438-21.26953125 20.65429687-21.53320312 0.08789063 0 11.68945313-0.43945313 22.8515625-6.24023438 14.0625-7.20703125 20.56640625-18.984375 20.56640625-37.08984375v-180.61523437c0-77.16796875-62.578125-139.74609375-139.74609374-139.74609375H258.78710937c-32.78320313 0-59.32617188 26.54296875-59.32617187 59.32617188V645.38671875c0 32.78320313 26.54296875 59.32617188 59.32617188 59.32617188h261.29882812c16.61132813 0 28.4765625-3.8671875 35.33203125-11.6015625 3.60351563-4.04296875 5.625-9.140625 6.76757813-14.0625 2.19726563-9.66796875 10.8984375-16.43554688 20.74218749-16.43554688 13.62304688 0 23.90625 12.56835938 20.83007813 25.83984375-2.28515625 9.84375-6.94335938 21.26953125-16.34765625 32.08007813-15.1171875 17.40234375-37.79296875 26.27929688-67.32421875 26.27929687H258.78710937c-56.07421875 0-101.51367188-45.43945313-101.51367187-101.51367188v-522.68554687c0-56.07421875 45.43945313-101.51367188 101.51367188-101.51367188h442.26562499c100.45898438 0 181.93359375 81.47460938 181.93359376 181.93359376V383.73632812000005c0 33.75-15.46875 60.29296875-43.50585938 74.70703126zM549.6171875 455.45507813c-56.33789063-76.81640625-82.88085938-144.40429688-76.72851563-195.46875001 4.21875-34.98046875 23.29101563-60.8203125 55.10742188-74.88281249 2.8125-1.23046875 5.625-1.84570313 8.52539063-1.84570313 8.0859375 0 15.8203125 4.65820313 19.3359375 12.56835938 4.74609375 10.63476563-0.08789063 23.11523438-10.81054688 27.86132812-18.01757813 7.91015625-27.86132813 21.4453125-30.32226562 41.39648438-2.19726563 18.36914063 2.19726563 42.01171875 12.65625 68.46679687 11.68945313 29.44335938 30.5859375 62.05078125 56.16210937 96.94335938C640.58398438 508.1015625 728.2109375 593.35546875 837.1953125 677.11523438c0.96679688 0.703125 1.7578125 1.49414063 2.54882813 2.37304687 0.08789063-3.8671875 0.17578125-8.0859375 0.17578125-12.83203125v-85.69335938c0-11.68945313 9.40429688-21.09375 21.09374999-21.09374999s21.09375 9.40429688 21.09375001 21.09375v85.69335937c0 29.35546875-1.23046875 52.99804688-16.96289063 68.46679688-15.29296875 15.02929688-38.49609375 16.171875-67.32421875 16.17187499h-85.95703125c-11.68945313 0-21.09375-9.40429688-21.09375-21.09375s9.40429688-21.09375 21.09375-21.09375h85.95703125c2.63671875 0 6.85546875 0 11.6015625-0.08789062-111.18164063-85.69335938-200.91796875-173.3203125-259.8046875-253.56445313z"  horiz-adv-x="1024" />

    
    <glyph glyph-name="shezhi" unicode="&#58891;" d="M913.22595555 299.54275555000004c-36.15857778 49.39093333-36.15857778 116.50844445 0 165.89937778 68.85831111 94.06008889-0.28444445 223.4368-112.32142222 223.4368-5.29066667 0-10.69511111-0.28444445-16.16782222-0.88746666-5.10862222-0.55751111-10.19448889-0.83057778-15.24622222-0.83057778-55.12533333 0-105.81333333 32.47217778-128.43235556 83.77457778-24.62151111 55.84213333-76.56106667 83.77457778-128.48924444 83.77457778s-103.86773333-27.92106667-128.48924444-83.77457778c-22.61902222-51.31377778-73.29564445-83.77457778-128.43235556-83.77457778-5.05173333 0-10.1376 0.27306667-15.24622222 0.83057778-5.48408889 0.59164445-10.86577778 0.88746667-16.16782222 0.88746666-112.0256 0-181.16835555-129.38808889-112.32142223-223.4368 36.15857778-49.39093333 36.15857778-116.50844445 0-165.89937778-68.85831111-94.06008889 0.28444445-223.4368 112.32142223-223.4368 5.29066667 0 10.69511111 0.28444445 16.16782222 0.88746667 5.10862222 0.55751111 10.19448889 0.83057778 15.24622222 0.83057778 55.12533333 0 105.81333333-32.47217778 128.43235556-83.77457778 24.62151111-55.84213333 76.56106667-83.77457778 128.48924444-83.77457777s103.86773333 27.92106667 128.48924444 83.77457777c22.61902222 51.31377778 73.29564445 83.77457778 128.43235556 83.77457778 5.05173333 0 10.1376-0.27306667 15.24622222-0.83057778 5.48408889-0.59164445 10.86577778-0.88746667 16.16782222-0.88746667 112.0256 0 181.16835555 129.38808889 112.32142222 223.4368z m-85.31057777 18.85297778a208.36807111 208.36807111 0 0 1 30.21937777-59.17582222c23.62026667-32.26737778 12.23111111-63.23768889 6.23502223-75.0592-6.01884445-11.86702222-14.91626667-21.83395555-25.71377778-28.83128889-11.24124445-7.2704-23.95022222-10.9568-37.76284445-10.9568-2.87857778 0-5.82542222 0.15928889-8.78364444 0.48924445a208.78222222 208.78222222 0 0 1-22.61902222 1.2288c-82.61404445 0-157.54808889-48.86755555-190.89635556-124.49564445-6.16675555-13.98328889-15.40551111-24.86044445-27.47733333-32.32426667-11.33226667-7.00871111-24.65564445-10.71786667-38.54791111-10.71786666s-27.22702222 3.70915555-38.54791111 10.71786666c-12.06044445 7.4752-21.31057778 18.34097778-27.47733333 32.32426667-33.34826667 75.62808889-108.28231111 124.49564445-190.89635556 124.49564445-7.52071111 0-15.13244445-0.4096-22.61902222-1.2288-2.95822222-0.31857778-5.91644445-0.48924445-8.78364445-0.48924445-13.81262222 0-26.5216 3.6864-37.77422222 10.9568-10.79751111 6.98595555-19.69493333 16.95288889-25.71377778 28.81991111-5.99608889 11.82151111-17.38524445 42.78044445 6.2464 75.0592a208.37489778 208.37489778 0 0 1 30.21937778 59.17582222c6.69013333 20.73031111 10.08071111 42.2912 10.08071111 64.09102223 0 21.79982222-3.39057778 43.37208889-10.08071111 64.09102222A208.36807111 208.36807111 0 0 1 167.00302222 505.74222222c-23.62026667 32.26737778-12.23111111 63.23768889-6.23502222 75.0592 6.01884445 11.86702222 14.91626667 21.83395555 25.71377778 28.83128889 11.24124445 7.2704 23.95022222 10.9568 37.76284444 10.9568 2.87857778 0 5.82542222-0.15928889 8.78364445-0.48924444a208.78222222 208.78222222 0 0 1 22.61902222-1.2288c82.61404445 0 157.54808889 48.86755555 190.89635556 124.49564444 6.16675555 13.98328889 15.40551111 24.86044445 27.47733333 32.32426667 11.33226667 7.00871111 24.65564445 10.71786667 38.54791111 10.71786667s27.22702222-3.70915555 38.54791111-10.71786667c12.07182222-7.4752 21.31057778-18.34097778 27.47733333-32.32426667 33.34826667-75.62808889 108.28231111-124.49564445 190.89635556-124.49564444 7.52071111 0 15.13244445 0.4096 22.61902222 1.2288 2.95822222 0.31857778 5.91644445 0.48924445 8.78364444 0.48924444 13.81262222 0 26.5216-3.6864 37.77422223-10.9568 10.79751111-6.98595555 19.69493333-16.95288889 25.71377777-28.81991111 5.99608889-11.82151111 17.38524445-42.78044445-6.2464-75.0592A208.37489778 208.37489778 0 0 1 827.91537778 446.57777778a208.36693333 208.36693333 0 0 1-10.08071111-64.09102223c0-21.79982222 3.39057778-43.36071111 10.08071111-64.09102222zM512.56888889 550.63893333c-92.34204445 0-167.20782222-74.86577778-167.20782222-167.20782222s74.86577778-167.20782222 167.20782222-167.20782222 167.20782222 74.86577778 167.20782222 167.20782222-74.86577778 167.20782222-167.20782222 167.20782222z m0-266.14897778c-54.55644445 0-98.94115555 44.38471111-98.94115556 98.94115556s44.38471111 98.94115555 98.94115556 98.94115556 98.94115555-44.38471111 98.94115556-98.94115556-44.38471111-98.94115555-98.94115556-98.94115556z"  horiz-adv-x="1024" />

    
    <glyph glyph-name="duigou" unicode="&#58937;" d="M450.8 202.2c-8.2 0-16.4 3.1-22.6 9.4L250.9 388.9c-12.5 12.5-12.5 32.8 0 45.3s32.8 12.5 45.3 0l154.7-154.7 277 277c12.5 12.5 32.8 12.5 45.3 0s12.5-32.8 0-45.3L473.5 211.5c-6.3-6.2-14.5-9.3-22.7-9.3zM512-60.2c-59.9 0-118.1 11.7-172.9 34.9-52.9 22.4-100.4 54.4-141.2 95.2s-72.8 88.3-95.2 141.2c-23.2 54.8-34.9 113-34.9 172.9s11.7 118.1 34.9 172.9c22.4 52.9 54.4 100.4 95.2 141.2s88.3 72.8 141.2 95.2c54.8 23.2 113 34.9 172.9 34.9s118.1-11.7 172.9-34.9c52.9-22.4 100.4-54.4 141.2-95.2s72.8-88.3 95.2-141.2c23.2-54.8 34.9-113 34.9-172.9s-11.7-118.1-34.9-172.9c-22.4-52.9-54.4-100.4-95.2-141.2s-88.3-72.8-141.2-95.2c-54.8-23.1-113-34.9-172.9-34.9z m0 824.4c-101.5 0-197-39.5-268.8-111.3S131.8 485.5 131.8 384s39.5-197 111.3-268.8S410.5 3.8 512 3.8s197 39.5 268.8 111.3S892.2 282.5 892.2 384s-39.5 197-111.3 268.8S613.5 764.2 512 764.2z"  horiz-adv-x="1024" />

    
    <glyph glyph-name="you-" unicode="&#58906;" d="M660.471875 340.490625c-11.540625 0-23.025 4.396875-31.81875 13.18125L331.7 650.690625c-17.578125 17.578125-17.578125 46.05 0 63.6375s46.05 17.578125 63.6375 0l296.953125-297.009375c17.578125-17.578125 17.578125-46.05 0-63.6375-8.79375-8.79375-20.278125-13.190625-31.81875-13.190625zM363.51875 40.49062500000002c-11.540625 0-23.025 4.396875-31.81875 13.18125-17.578125 17.578125-17.578125 46.05 0 63.6375l296.953125 297.009375c17.578125 17.578125 46.05 17.578125 63.6375 0s17.578125-46.05 0-63.6375l-296.953125-297c-8.79375-8.79375-20.278125-13.190625-31.81875-13.190625z"  horiz-adv-x="1024" />

    


  </font>
</defs>
</svg>
